<mxfile host="app.diagrams.net" modified="2022-03-28T22:39:05.330Z" agent="5.0 (Macintosh; Intel Mac OS X 10_15_7) AppleWebKit/605.1.15 (KHTML, like Gecko) Version/15.4 Safari/605.1.15" etag="i4_7TW0cS8Z1or8OnmFz" version="17.2.1" type="github" pages="3">
  <diagram name="Page-1" id="c4acf3e9-155e-7222-9cf6-157b1a14988f">
    <mxGraphModel dx="912" dy="967" grid="1" gridSize="10" guides="1" tooltips="1" connect="1" arrows="1" fold="1" page="1" pageScale="1" pageWidth="850" pageHeight="1100" background="none" math="0" shadow="0">
      <root>
        <mxCell id="0" />
        <mxCell id="1" parent="0" />
        <mxCell id="_ubpW2PvW1FqLBq_iPHG-1" value="User" style="swimlane;fontStyle=1;align=center;verticalAlign=top;childLayout=stackLayout;horizontal=1;startSize=26;horizontalStack=0;resizeParent=1;resizeParentMax=0;resizeLast=0;collapsible=1;marginBottom=0;rounded=1;" parent="1" vertex="1">
          <mxGeometry x="150" y="80" width="260" height="134" as="geometry">
            <mxRectangle x="310" y="200" width="60" height="26" as="alternateBounds" />
          </mxGeometry>
        </mxCell>
        <mxCell id="_ubpW2PvW1FqLBq_iPHG-2" value="+ name: string&#xa;+ email: string&#xa;+ jNumber: Int&#xa;+ role: string&#xa;" style="text;strokeColor=none;fillColor=none;align=left;verticalAlign=top;spacingLeft=4;spacingRight=4;overflow=hidden;rotatable=0;points=[[0,0.5],[1,0.5]];portConstraint=eastwest;rounded=1;" parent="_ubpW2PvW1FqLBq_iPHG-1" vertex="1">
          <mxGeometry y="26" width="260" height="74" as="geometry" />
        </mxCell>
        <mxCell id="_ubpW2PvW1FqLBq_iPHG-3" value="" style="line;strokeWidth=1;fillColor=none;align=left;verticalAlign=middle;spacingTop=-1;spacingLeft=3;spacingRight=3;rotatable=0;labelPosition=right;points=[];portConstraint=eastwest;rounded=1;" parent="_ubpW2PvW1FqLBq_iPHG-1" vertex="1">
          <mxGeometry y="100" width="260" height="8" as="geometry" />
        </mxCell>
        <mxCell id="_ubpW2PvW1FqLBq_iPHG-4" value="- setName: String" style="text;strokeColor=none;fillColor=none;align=left;verticalAlign=top;spacingLeft=4;spacingRight=4;overflow=hidden;rotatable=0;points=[[0,0.5],[1,0.5]];portConstraint=eastwest;rounded=1;" parent="_ubpW2PvW1FqLBq_iPHG-1" vertex="1">
          <mxGeometry y="108" width="260" height="26" as="geometry" />
        </mxCell>
        <mxCell id="WQJXKOIPrKnD1Et2FbO--5" style="edgeStyle=orthogonalEdgeStyle;rounded=1;orthogonalLoop=1;jettySize=auto;html=1;entryX=1;entryY=0.5;entryDx=0;entryDy=0;endArrow=none;endFill=0;startArrow=classic;startFill=1;" parent="1" source="3SUL-DMxUtHeUnSrKIBr-1" target="WQJXKOIPrKnD1Et2FbO--2" edge="1">
          <mxGeometry relative="1" as="geometry" />
        </mxCell>
        <mxCell id="_jqpOcc9NHu2ODp3NbJW-52" value="1" style="edgeLabel;html=1;align=center;verticalAlign=middle;resizable=0;points=[];" vertex="1" connectable="0" parent="WQJXKOIPrKnD1Et2FbO--5">
          <mxGeometry x="-0.8023" y="-1" relative="1" as="geometry">
            <mxPoint as="offset" />
          </mxGeometry>
        </mxCell>
        <mxCell id="_jqpOcc9NHu2ODp3NbJW-53" value="0..*" style="edgeLabel;html=1;align=center;verticalAlign=middle;resizable=0;points=[];" vertex="1" connectable="0" parent="WQJXKOIPrKnD1Et2FbO--5">
          <mxGeometry x="0.6943" y="2" relative="1" as="geometry">
            <mxPoint as="offset" />
          </mxGeometry>
        </mxCell>
        <mxCell id="_jqpOcc9NHu2ODp3NbJW-54" value="-agenda" style="edgeLabel;html=1;align=center;verticalAlign=middle;resizable=0;points=[];" vertex="1" connectable="0" parent="WQJXKOIPrKnD1Et2FbO--5">
          <mxGeometry x="0.0745" y="-2" relative="1" as="geometry">
            <mxPoint y="9" as="offset" />
          </mxGeometry>
        </mxCell>
        <mxCell id="3SUL-DMxUtHeUnSrKIBr-1" value="Schedule" style="swimlane;fontStyle=1;align=center;verticalAlign=top;childLayout=stackLayout;horizontal=1;startSize=26;horizontalStack=0;resizeParent=1;resizeParentMax=0;resizeLast=0;collapsible=1;marginBottom=0;rounded=1;" parent="1" vertex="1">
          <mxGeometry x="450" y="790" width="160" height="124" as="geometry" />
        </mxCell>
        <mxCell id="3SUL-DMxUtHeUnSrKIBr-2" value="+ subject: [string]&#xa;+ time: Date&#xa;" style="text;strokeColor=none;fillColor=none;align=left;verticalAlign=top;spacingLeft=4;spacingRight=4;overflow=hidden;rotatable=0;points=[[0,0.5],[1,0.5]];portConstraint=eastwest;rounded=1;" parent="3SUL-DMxUtHeUnSrKIBr-1" vertex="1">
          <mxGeometry y="26" width="160" height="64" as="geometry" />
        </mxCell>
        <mxCell id="3SUL-DMxUtHeUnSrKIBr-3" value="" style="line;strokeWidth=1;fillColor=none;align=left;verticalAlign=middle;spacingTop=-1;spacingLeft=3;spacingRight=3;rotatable=0;labelPosition=right;points=[];portConstraint=eastwest;rounded=1;" parent="3SUL-DMxUtHeUnSrKIBr-1" vertex="1">
          <mxGeometry y="90" width="160" height="8" as="geometry" />
        </mxCell>
        <mxCell id="3SUL-DMxUtHeUnSrKIBr-4" value=" " style="text;strokeColor=none;fillColor=none;align=left;verticalAlign=top;spacingLeft=4;spacingRight=4;overflow=hidden;rotatable=0;points=[[0,0.5],[1,0.5]];portConstraint=eastwest;rounded=1;" parent="3SUL-DMxUtHeUnSrKIBr-1" vertex="1">
          <mxGeometry y="98" width="160" height="26" as="geometry" />
        </mxCell>
        <mxCell id="V36CHoftoXPUGbBD-Oji-1" value="SignInEntry" style="swimlane;fontStyle=1;align=center;verticalAlign=top;childLayout=stackLayout;horizontal=1;startSize=26;horizontalStack=0;resizeParent=1;resizeParentMax=0;resizeLast=0;collapsible=1;marginBottom=0;rounded=1;" parent="1" vertex="1">
          <mxGeometry x="160" y="650" width="160" height="86" as="geometry" />
        </mxCell>
        <mxCell id="V36CHoftoXPUGbBD-Oji-2" value="+ field: type" style="text;strokeColor=none;fillColor=none;align=left;verticalAlign=top;spacingLeft=4;spacingRight=4;overflow=hidden;rotatable=0;points=[[0,0.5],[1,0.5]];portConstraint=eastwest;rounded=1;" parent="V36CHoftoXPUGbBD-Oji-1" vertex="1">
          <mxGeometry y="26" width="160" height="26" as="geometry" />
        </mxCell>
        <mxCell id="V36CHoftoXPUGbBD-Oji-3" value="" style="line;strokeWidth=1;fillColor=none;align=left;verticalAlign=middle;spacingTop=-1;spacingLeft=3;spacingRight=3;rotatable=0;labelPosition=right;points=[];portConstraint=eastwest;rounded=1;" parent="V36CHoftoXPUGbBD-Oji-1" vertex="1">
          <mxGeometry y="52" width="160" height="8" as="geometry" />
        </mxCell>
        <mxCell id="V36CHoftoXPUGbBD-Oji-4" value="+ method(type): type" style="text;strokeColor=none;fillColor=none;align=left;verticalAlign=top;spacingLeft=4;spacingRight=4;overflow=hidden;rotatable=0;points=[[0,0.5],[1,0.5]];portConstraint=eastwest;rounded=1;" parent="V36CHoftoXPUGbBD-Oji-1" vertex="1">
          <mxGeometry y="60" width="160" height="26" as="geometry" />
        </mxCell>
        <mxCell id="WQJXKOIPrKnD1Et2FbO--1" value="WeekEntry" style="swimlane;fontStyle=1;align=center;verticalAlign=top;childLayout=stackLayout;horizontal=1;startSize=26;horizontalStack=0;resizeParent=1;resizeParentMax=0;resizeLast=0;collapsible=1;marginBottom=0;rounded=1;" parent="1" vertex="1">
          <mxGeometry x="160" y="790" width="160" height="134" as="geometry" />
        </mxCell>
        <mxCell id="WQJXKOIPrKnD1Et2FbO--2" value="-days: [string]&#xa;-startTime: Date&#xa;-endTime: Date" style="text;strokeColor=none;fillColor=none;align=left;verticalAlign=top;spacingLeft=4;spacingRight=4;overflow=hidden;rotatable=0;points=[[0,0.5],[1,0.5]];portConstraint=eastwest;rounded=1;" parent="WQJXKOIPrKnD1Et2FbO--1" vertex="1">
          <mxGeometry y="26" width="160" height="74" as="geometry" />
        </mxCell>
        <mxCell id="WQJXKOIPrKnD1Et2FbO--3" value="" style="line;strokeWidth=1;fillColor=none;align=left;verticalAlign=middle;spacingTop=-1;spacingLeft=3;spacingRight=3;rotatable=0;labelPosition=right;points=[];portConstraint=eastwest;rounded=1;" parent="WQJXKOIPrKnD1Et2FbO--1" vertex="1">
          <mxGeometry y="100" width="160" height="8" as="geometry" />
        </mxCell>
        <mxCell id="WQJXKOIPrKnD1Et2FbO--4" value=" " style="text;strokeColor=none;fillColor=none;align=left;verticalAlign=top;spacingLeft=4;spacingRight=4;overflow=hidden;rotatable=0;points=[[0,0.5],[1,0.5]];portConstraint=eastwest;rounded=1;" parent="WQJXKOIPrKnD1Et2FbO--1" vertex="1">
          <mxGeometry y="108" width="160" height="26" as="geometry" />
        </mxCell>
        <mxCell id="_jqpOcc9NHu2ODp3NbJW-13" style="edgeStyle=none;rounded=0;orthogonalLoop=1;jettySize=auto;html=1;exitX=0.5;exitY=0;exitDx=0;exitDy=0;endArrow=block;startSize=14;endSize=14;sourcePerimeterSpacing=8;targetPerimeterSpacing=8;endFill=0;entryX=0.227;entryY=1.052;entryDx=0;entryDy=0;entryPerimeter=0;" edge="1" parent="1" source="_jqpOcc9NHu2ODp3NbJW-1" target="_ubpW2PvW1FqLBq_iPHG-4">
          <mxGeometry relative="1" as="geometry">
            <Array as="points">
              <mxPoint x="160" y="280" />
              <mxPoint x="210" y="280" />
            </Array>
          </mxGeometry>
        </mxCell>
        <mxCell id="_jqpOcc9NHu2ODp3NbJW-1" value="Admin" style="swimlane;fontStyle=1;align=center;verticalAlign=top;childLayout=stackLayout;horizontal=1;startSize=26;horizontalStack=0;resizeParent=1;resizeParentMax=0;resizeLast=0;collapsible=1;marginBottom=0;rounded=1;hachureGap=4;" vertex="1" parent="1">
          <mxGeometry x="80" y="330" width="160" height="120" as="geometry" />
        </mxCell>
        <mxCell id="_jqpOcc9NHu2ODp3NbJW-2" value=" " style="text;strokeColor=none;fillColor=none;align=left;verticalAlign=top;spacingLeft=4;spacingRight=4;overflow=hidden;rotatable=0;points=[[0,0.5],[1,0.5]];portConstraint=eastwest;rounded=1;hachureGap=4;" vertex="1" parent="_jqpOcc9NHu2ODp3NbJW-1">
          <mxGeometry y="26" width="160" height="26" as="geometry" />
        </mxCell>
        <mxCell id="_jqpOcc9NHu2ODp3NbJW-3" value="" style="line;strokeWidth=1;fillColor=none;align=left;verticalAlign=middle;spacingTop=-1;spacingLeft=3;spacingRight=3;rotatable=0;labelPosition=right;points=[];portConstraint=eastwest;rounded=1;hachureGap=4;" vertex="1" parent="_jqpOcc9NHu2ODp3NbJW-1">
          <mxGeometry y="52" width="160" height="8" as="geometry" />
        </mxCell>
        <mxCell id="_jqpOcc9NHu2ODp3NbJW-4" value="-addStudent()&#xa;-addMentor()&#xa;-addSignInEntry()" style="text;strokeColor=none;fillColor=none;align=left;verticalAlign=top;spacingLeft=4;spacingRight=4;overflow=hidden;rotatable=0;points=[[0,0.5],[1,0.5]];portConstraint=eastwest;rounded=1;hachureGap=4;" vertex="1" parent="_jqpOcc9NHu2ODp3NbJW-1">
          <mxGeometry y="60" width="160" height="60" as="geometry" />
        </mxCell>
        <mxCell id="_jqpOcc9NHu2ODp3NbJW-19" style="edgeStyle=none;rounded=0;orthogonalLoop=1;jettySize=auto;html=1;endArrow=block;endFill=0;startSize=14;endSize=14;sourcePerimeterSpacing=8;targetPerimeterSpacing=8;entryX=0.919;entryY=1.011;entryDx=0;entryDy=0;entryPerimeter=0;exitX=0.5;exitY=0;exitDx=0;exitDy=0;" edge="1" parent="1" source="_jqpOcc9NHu2ODp3NbJW-5" target="_ubpW2PvW1FqLBq_iPHG-4">
          <mxGeometry relative="1" as="geometry">
            <mxPoint x="260" y="220" as="targetPoint" />
            <Array as="points">
              <mxPoint x="570" y="280" />
              <mxPoint x="389" y="280" />
            </Array>
          </mxGeometry>
        </mxCell>
        <mxCell id="_jqpOcc9NHu2ODp3NbJW-5" value="Mentor" style="swimlane;fontStyle=1;align=center;verticalAlign=top;childLayout=stackLayout;horizontal=1;startSize=26;horizontalStack=0;resizeParent=1;resizeParentMax=0;resizeLast=0;collapsible=1;marginBottom=0;rounded=1;hachureGap=4;" vertex="1" parent="1">
          <mxGeometry x="490" y="339" width="160" height="120" as="geometry" />
        </mxCell>
        <mxCell id="_jqpOcc9NHu2ODp3NbJW-6" value="-mentees:[string]" style="text;strokeColor=none;fillColor=none;align=left;verticalAlign=top;spacingLeft=4;spacingRight=4;overflow=hidden;rotatable=0;points=[[0,0.5],[1,0.5]];portConstraint=eastwest;rounded=1;hachureGap=4;" vertex="1" parent="_jqpOcc9NHu2ODp3NbJW-5">
          <mxGeometry y="26" width="160" height="26" as="geometry" />
        </mxCell>
        <mxCell id="_jqpOcc9NHu2ODp3NbJW-7" value="" style="line;strokeWidth=1;fillColor=none;align=left;verticalAlign=middle;spacingTop=-1;spacingLeft=3;spacingRight=3;rotatable=0;labelPosition=right;points=[];portConstraint=eastwest;rounded=1;hachureGap=4;" vertex="1" parent="_jqpOcc9NHu2ODp3NbJW-5">
          <mxGeometry y="52" width="160" height="8" as="geometry" />
        </mxCell>
        <mxCell id="_jqpOcc9NHu2ODp3NbJW-8" value=" " style="text;strokeColor=none;fillColor=none;align=left;verticalAlign=top;spacingLeft=4;spacingRight=4;overflow=hidden;rotatable=0;points=[[0,0.5],[1,0.5]];portConstraint=eastwest;rounded=1;hachureGap=4;" vertex="1" parent="_jqpOcc9NHu2ODp3NbJW-5">
          <mxGeometry y="60" width="160" height="60" as="geometry" />
        </mxCell>
        <mxCell id="_jqpOcc9NHu2ODp3NbJW-21" style="edgeStyle=none;rounded=0;orthogonalLoop=1;jettySize=auto;html=1;entryX=0.419;entryY=1.066;entryDx=0;entryDy=0;entryPerimeter=0;endArrow=block;endFill=0;startSize=14;endSize=14;sourcePerimeterSpacing=8;targetPerimeterSpacing=8;exitX=0.5;exitY=0;exitDx=0;exitDy=0;" edge="1" parent="1" source="_jqpOcc9NHu2ODp3NbJW-9" target="_ubpW2PvW1FqLBq_iPHG-4">
          <mxGeometry relative="1" as="geometry">
            <Array as="points">
              <mxPoint x="370" y="280" />
              <mxPoint x="260" y="280" />
            </Array>
          </mxGeometry>
        </mxCell>
        <mxCell id="_jqpOcc9NHu2ODp3NbJW-38" style="edgeStyle=none;rounded=0;orthogonalLoop=1;jettySize=auto;html=1;entryX=1;entryY=0.5;entryDx=0;entryDy=0;endArrow=none;endFill=0;startSize=14;endSize=14;sourcePerimeterSpacing=8;targetPerimeterSpacing=8;exitX=0.506;exitY=0.993;exitDx=0;exitDy=0;exitPerimeter=0;" edge="1" parent="1" source="_jqpOcc9NHu2ODp3NbJW-12" target="V36CHoftoXPUGbBD-Oji-1">
          <mxGeometry relative="1" as="geometry">
            <Array as="points">
              <mxPoint x="370" y="693" />
            </Array>
          </mxGeometry>
        </mxCell>
        <mxCell id="_jqpOcc9NHu2ODp3NbJW-39" value="1" style="edgeLabel;html=1;align=center;verticalAlign=middle;resizable=0;points=[];" vertex="1" connectable="0" parent="_jqpOcc9NHu2ODp3NbJW-38">
          <mxGeometry x="-0.8666" y="2" relative="1" as="geometry">
            <mxPoint as="offset" />
          </mxGeometry>
        </mxCell>
        <mxCell id="_jqpOcc9NHu2ODp3NbJW-40" value="0..*" style="edgeLabel;html=1;align=center;verticalAlign=middle;resizable=0;points=[];" vertex="1" connectable="0" parent="_jqpOcc9NHu2ODp3NbJW-38">
          <mxGeometry x="0.8885" y="1" relative="1" as="geometry">
            <mxPoint as="offset" />
          </mxGeometry>
        </mxCell>
        <mxCell id="_jqpOcc9NHu2ODp3NbJW-9" value="Tutor" style="swimlane;fontStyle=1;align=center;verticalAlign=top;childLayout=stackLayout;horizontal=1;startSize=26;horizontalStack=0;resizeParent=1;resizeParentMax=0;resizeLast=0;collapsible=1;marginBottom=0;rounded=1;hachureGap=4;" vertex="1" parent="1">
          <mxGeometry x="290" y="330" width="160" height="138" as="geometry" />
        </mxCell>
        <mxCell id="_jqpOcc9NHu2ODp3NbJW-10" value="-subject:[string]&#xa;-tutees:[string]" style="text;strokeColor=none;fillColor=none;align=left;verticalAlign=top;spacingLeft=4;spacingRight=4;overflow=hidden;rotatable=0;points=[[0,0.5],[1,0.5]];portConstraint=eastwest;rounded=1;hachureGap=4;" vertex="1" parent="_jqpOcc9NHu2ODp3NbJW-9">
          <mxGeometry y="26" width="160" height="44" as="geometry" />
        </mxCell>
        <mxCell id="_jqpOcc9NHu2ODp3NbJW-11" value="" style="line;strokeWidth=1;fillColor=none;align=left;verticalAlign=middle;spacingTop=-1;spacingLeft=3;spacingRight=3;rotatable=0;labelPosition=right;points=[];portConstraint=eastwest;rounded=1;hachureGap=4;" vertex="1" parent="_jqpOcc9NHu2ODp3NbJW-9">
          <mxGeometry y="70" width="160" height="8" as="geometry" />
        </mxCell>
        <mxCell id="_jqpOcc9NHu2ODp3NbJW-12" value="-addStudent()&#xa;-addMentor()&#xa;-addSignInEntry()" style="text;strokeColor=none;fillColor=none;align=left;verticalAlign=top;spacingLeft=4;spacingRight=4;overflow=hidden;rotatable=0;points=[[0,0.5],[1,0.5]];portConstraint=eastwest;rounded=1;hachureGap=4;" vertex="1" parent="_jqpOcc9NHu2ODp3NbJW-9">
          <mxGeometry y="78" width="160" height="60" as="geometry" />
        </mxCell>
        <mxCell id="_jqpOcc9NHu2ODp3NbJW-28" value="" style="edgeStyle=none;rounded=0;orthogonalLoop=1;jettySize=auto;html=1;entryX=0.453;entryY=1.024;entryDx=0;entryDy=0;entryPerimeter=0;endArrow=none;endFill=0;startSize=14;endSize=14;sourcePerimeterSpacing=8;targetPerimeterSpacing=8;align=center;exitX=0;exitY=0.5;exitDx=0;exitDy=0;" edge="1" parent="1" source="V36CHoftoXPUGbBD-Oji-2" target="_jqpOcc9NHu2ODp3NbJW-4">
          <mxGeometry relative="1" as="geometry">
            <Array as="points">
              <mxPoint x="100" y="690" />
              <mxPoint x="100" y="480" />
              <mxPoint x="152" y="480" />
            </Array>
          </mxGeometry>
        </mxCell>
        <mxCell id="_jqpOcc9NHu2ODp3NbJW-35" value="1" style="edgeLabel;html=1;align=center;verticalAlign=middle;resizable=0;points=[];" vertex="1" connectable="0" parent="_jqpOcc9NHu2ODp3NbJW-28">
          <mxGeometry x="0.9396" relative="1" as="geometry">
            <mxPoint x="8" y="-2" as="offset" />
          </mxGeometry>
        </mxCell>
        <mxCell id="_jqpOcc9NHu2ODp3NbJW-37" value="0..*" style="edgeLabel;html=1;align=center;verticalAlign=middle;resizable=0;points=[];" vertex="1" connectable="0" parent="_jqpOcc9NHu2ODp3NbJW-28">
          <mxGeometry x="-0.9314" y="-1" relative="1" as="geometry">
            <mxPoint y="-8" as="offset" />
          </mxGeometry>
        </mxCell>
        <mxCell id="_jqpOcc9NHu2ODp3NbJW-41" style="edgeStyle=none;rounded=0;orthogonalLoop=1;jettySize=auto;html=1;entryX=0.75;entryY=0;entryDx=0;entryDy=0;endArrow=none;endFill=0;startSize=14;endSize=14;sourcePerimeterSpacing=8;targetPerimeterSpacing=8;" edge="1" parent="1" target="3SUL-DMxUtHeUnSrKIBr-1">
          <mxGeometry relative="1" as="geometry">
            <mxPoint x="570" y="460" as="sourcePoint" />
          </mxGeometry>
        </mxCell>
        <mxCell id="_jqpOcc9NHu2ODp3NbJW-50" value="1" style="edgeLabel;html=1;align=center;verticalAlign=middle;resizable=0;points=[];" vertex="1" connectable="0" parent="_jqpOcc9NHu2ODp3NbJW-41">
          <mxGeometry x="-0.8961" y="2" relative="1" as="geometry">
            <mxPoint as="offset" />
          </mxGeometry>
        </mxCell>
        <mxCell id="_jqpOcc9NHu2ODp3NbJW-51" value="1" style="edgeLabel;html=1;align=center;verticalAlign=middle;resizable=0;points=[];" vertex="1" connectable="0" parent="_jqpOcc9NHu2ODp3NbJW-41">
          <mxGeometry x="0.8615" y="3" relative="1" as="geometry">
            <mxPoint as="offset" />
          </mxGeometry>
        </mxCell>
        <mxCell id="_jqpOcc9NHu2ODp3NbJW-47" style="edgeStyle=none;rounded=0;orthogonalLoop=1;jettySize=auto;html=1;entryX=0.25;entryY=0;entryDx=0;entryDy=0;endArrow=none;endFill=0;startSize=14;endSize=14;sourcePerimeterSpacing=8;targetPerimeterSpacing=8;exitX=0.77;exitY=0.986;exitDx=0;exitDy=0;exitPerimeter=0;" edge="1" parent="1" source="_jqpOcc9NHu2ODp3NbJW-12" target="3SUL-DMxUtHeUnSrKIBr-1">
          <mxGeometry relative="1" as="geometry">
            <Array as="points">
              <mxPoint x="413" y="690" />
              <mxPoint x="490" y="690" />
            </Array>
          </mxGeometry>
        </mxCell>
        <mxCell id="_jqpOcc9NHu2ODp3NbJW-48" value="1" style="edgeLabel;html=1;align=center;verticalAlign=middle;resizable=0;points=[];" vertex="1" connectable="0" parent="_jqpOcc9NHu2ODp3NbJW-47">
          <mxGeometry x="-0.9001" y="1" relative="1" as="geometry">
            <mxPoint as="offset" />
          </mxGeometry>
        </mxCell>
        <mxCell id="_jqpOcc9NHu2ODp3NbJW-49" value="1" style="edgeLabel;html=1;align=center;verticalAlign=middle;resizable=0;points=[];" vertex="1" connectable="0" parent="_jqpOcc9NHu2ODp3NbJW-47">
          <mxGeometry x="0.9" relative="1" as="geometry">
            <mxPoint as="offset" />
          </mxGeometry>
        </mxCell>
      </root>
    </mxGraphModel>
  </diagram>
  <diagram id="kxtE9AXQvHtPeq7Te1QG" name="admin-use-case">
    <mxGraphModel dx="1273" dy="799" grid="1" gridSize="10" guides="1" tooltips="1" connect="1" arrows="1" fold="1" page="1" pageScale="1" pageWidth="827" pageHeight="1169" math="0" shadow="0">
      <root>
        <mxCell id="0" />
        <mxCell id="1" parent="0" />
        <mxCell id="RadBQ22n1EjY_jQz5-DQ-1" style="edgeStyle=orthogonalEdgeStyle;rounded=0;orthogonalLoop=1;jettySize=auto;html=1;entryX=0;entryY=0.5;entryDx=0;entryDy=0;" edge="1" parent="1" source="qmPes8KCNnOIXlvagaxK-1" target="n4BWkDWinWEF-hOJ6P8c-3">
          <mxGeometry relative="1" as="geometry" />
        </mxCell>
        <mxCell id="RadBQ22n1EjY_jQz5-DQ-3" style="edgeStyle=orthogonalEdgeStyle;rounded=0;orthogonalLoop=1;jettySize=auto;html=1;entryX=0;entryY=0.5;entryDx=0;entryDy=0;" edge="1" parent="1" source="qmPes8KCNnOIXlvagaxK-1" target="qmPes8KCNnOIXlvagaxK-2">
          <mxGeometry relative="1" as="geometry" />
        </mxCell>
        <mxCell id="qmPes8KCNnOIXlvagaxK-1" value="Admin" style="shape=umlActor;verticalLabelPosition=bottom;verticalAlign=top;html=1;" vertex="1" parent="1">
          <mxGeometry x="200" y="230" width="30" height="60" as="geometry" />
        </mxCell>
        <mxCell id="RadBQ22n1EjY_jQz5-DQ-7" style="edgeStyle=orthogonalEdgeStyle;rounded=0;orthogonalLoop=1;jettySize=auto;html=1;entryX=0;entryY=0.5;entryDx=0;entryDy=0;" edge="1" parent="1" source="qmPes8KCNnOIXlvagaxK-2" target="1-I_bPK8Sle8sM23UGmq-2">
          <mxGeometry relative="1" as="geometry" />
        </mxCell>
        <mxCell id="qmPes8KCNnOIXlvagaxK-2" value="upload sign in Entry" style="ellipse;whiteSpace=wrap;html=1;" vertex="1" parent="1">
          <mxGeometry x="380" y="470" width="140" height="70" as="geometry" />
        </mxCell>
        <mxCell id="ox1PaW5e4coJnlqQD35f-1" value="Add Users" style="ellipse;whiteSpace=wrap;html=1;" vertex="1" parent="1">
          <mxGeometry x="650" y="120" width="140" height="70" as="geometry" />
        </mxCell>
        <mxCell id="THmPv1QbJULemCan42fM-2" style="edgeStyle=orthogonalEdgeStyle;rounded=0;orthogonalLoop=1;jettySize=auto;html=1;entryX=1;entryY=0.5;entryDx=0;entryDy=0;" edge="1" parent="1" source="ox1PaW5e4coJnlqQD35f-3" target="ox1PaW5e4coJnlqQD35f-1">
          <mxGeometry relative="1" as="geometry">
            <Array as="points">
              <mxPoint x="830" y="130" />
              <mxPoint x="830" y="155" />
            </Array>
          </mxGeometry>
        </mxCell>
        <mxCell id="ox1PaW5e4coJnlqQD35f-3" value="post tutoring schedule" style="ellipse;whiteSpace=wrap;html=1;" vertex="1" parent="1">
          <mxGeometry x="890" y="100" width="140" height="70" as="geometry" />
        </mxCell>
        <mxCell id="iVgFeVMDYlsxGR1q7uXw-2" style="edgeStyle=orthogonalEdgeStyle;rounded=0;orthogonalLoop=1;jettySize=auto;html=1;entryX=1;entryY=0.5;entryDx=0;entryDy=0;" edge="1" parent="1" source="ox1PaW5e4coJnlqQD35f-4" target="ox1PaW5e4coJnlqQD35f-1">
          <mxGeometry relative="1" as="geometry">
            <Array as="points">
              <mxPoint x="830" y="345" />
              <mxPoint x="830" y="155" />
            </Array>
          </mxGeometry>
        </mxCell>
        <mxCell id="ox1PaW5e4coJnlqQD35f-4" value="post mentoring schedule" style="ellipse;whiteSpace=wrap;html=1;" vertex="1" parent="1">
          <mxGeometry x="880" y="310" width="140" height="70" as="geometry" />
        </mxCell>
        <mxCell id="n4BWkDWinWEF-hOJ6P8c-1" value="Edit Users" style="ellipse;whiteSpace=wrap;html=1;" vertex="1" parent="1">
          <mxGeometry x="650" y="200" width="140" height="70" as="geometry" />
        </mxCell>
        <mxCell id="n4BWkDWinWEF-hOJ6P8c-2" value="Delete Users" style="ellipse;whiteSpace=wrap;html=1;" vertex="1" parent="1">
          <mxGeometry x="650" y="290" width="140" height="70" as="geometry" />
        </mxCell>
        <mxCell id="RadBQ22n1EjY_jQz5-DQ-4" style="edgeStyle=orthogonalEdgeStyle;rounded=0;orthogonalLoop=1;jettySize=auto;html=1;exitX=1;exitY=0.5;exitDx=0;exitDy=0;entryX=0;entryY=0.5;entryDx=0;entryDy=0;" edge="1" parent="1" source="n4BWkDWinWEF-hOJ6P8c-3" target="ox1PaW5e4coJnlqQD35f-1">
          <mxGeometry relative="1" as="geometry" />
        </mxCell>
        <mxCell id="RadBQ22n1EjY_jQz5-DQ-5" style="edgeStyle=orthogonalEdgeStyle;rounded=0;orthogonalLoop=1;jettySize=auto;html=1;entryX=0;entryY=0.5;entryDx=0;entryDy=0;" edge="1" parent="1" source="n4BWkDWinWEF-hOJ6P8c-3" target="n4BWkDWinWEF-hOJ6P8c-1">
          <mxGeometry relative="1" as="geometry" />
        </mxCell>
        <mxCell id="RadBQ22n1EjY_jQz5-DQ-6" style="edgeStyle=orthogonalEdgeStyle;rounded=0;orthogonalLoop=1;jettySize=auto;html=1;entryX=0;entryY=0.5;entryDx=0;entryDy=0;" edge="1" parent="1" source="n4BWkDWinWEF-hOJ6P8c-3" target="n4BWkDWinWEF-hOJ6P8c-2">
          <mxGeometry relative="1" as="geometry" />
        </mxCell>
        <mxCell id="n4BWkDWinWEF-hOJ6P8c-3" value="User Functions" style="ellipse;whiteSpace=wrap;html=1;" vertex="1" parent="1">
          <mxGeometry x="380" y="140" width="140" height="70" as="geometry" />
        </mxCell>
        <mxCell id="1-I_bPK8Sle8sM23UGmq-2" value="Add Users to the database" style="ellipse;whiteSpace=wrap;html=1;" vertex="1" parent="1">
          <mxGeometry x="650" y="470" width="140" height="70" as="geometry" />
        </mxCell>
      </root>
    </mxGraphModel>
  </diagram>
  <diagram id="dlSlh7p-ku16dleEivdk" name="sequence-diagram">
    <mxGraphModel dx="891" dy="559" grid="1" gridSize="10" guides="1" tooltips="1" connect="1" arrows="1" fold="1" page="1" pageScale="1" pageWidth="827" pageHeight="1169" math="0" shadow="0">
      <root>
        <mxCell id="0" />
        <mxCell id="1" parent="0" />
      </root>
    </mxGraphModel>
  </diagram>
</mxfile>
